<svg width="75" height="77" viewBox="0 0 75 77" fill="none" xmlns="http://www.w3.org/2000/svg">
<path d="M74.391 38.3322C74.391 30.7508 72.2275 23.3396 68.174 17.0359C64.1205 10.7323 58.3593 5.81915 51.6186 2.91787C44.8779 0.0166088 37.4608 -0.742495 30.3049 0.736558C23.1491 2.21562 16.576 5.86639 11.4169 11.2273C6.25789 16.5881 2.74452 23.4182 1.32114 30.8539C-0.102244 38.2896 0.628288 45.9969 3.42036 53.0012C6.21242 60.0055 10.9406 65.9921 17.007 70.2041C23.0735 74.4161 30.2056 76.6642 37.5016 76.6642C42.3462 76.6648 47.1433 75.6736 51.6191 73.7474C56.0949 71.8213 60.1618 68.9977 63.5874 65.4381C67.013 61.8785 69.7302 57.6527 71.5839 53.0018C73.4376 48.3509 74.3914 43.3662 74.391 38.3322Z" fill="#B7ECB1"/>
<path d="M16.7168 29.8281H18.7206L12.774 44.5072H12.3179L6.25293 29.8281H8.28179L12.5118 40.0931L16.7168 29.8281Z" fill="white"/>
<path d="M24.5897 38.6572V42.7617C24.5897 43.09 24.6974 43.2543 24.9129 43.2543C25.2962 43.18 25.654 43.0025 25.9507 42.7394V43.9035C25.6343 44.1244 25.2989 44.3143 24.9487 44.4707C24.6955 44.5719 24.4265 44.6238 24.1552 44.6236C23.3724 44.6236 22.9091 44.3028 22.7655 43.661C22.0646 44.2596 21.1878 44.5915 20.2806 44.6013C19.9825 44.6102 19.6858 44.556 19.4086 44.4418C19.1314 44.3276 18.8795 44.1558 18.6683 43.9371C18.4562 43.7203 18.2895 43.4601 18.1788 43.1731C18.0682 42.886 18.016 42.5782 18.0255 42.2692C18.0246 41.6629 18.2498 41.0796 18.6539 40.6423C19.1538 40.1202 19.7709 39.7356 20.4494 39.5229L22.7942 38.6834V38.1721C22.7942 37.0154 22.2376 36.4333 21.1244 36.4333C20.1238 36.4333 19.1495 36.9706 18.2014 38.0453V35.9371C18.9196 35.0689 19.9442 34.6336 21.2753 34.6311C22.1445 34.5908 22.9979 34.8828 23.674 35.452C23.8926 35.6498 24.0762 35.886 24.2162 36.1498C24.3704 36.417 24.4752 36.7118 24.525 37.0192C24.58 37.5657 24.6017 38.1153 24.5897 38.6647V38.6572ZM22.7942 42.549V39.6908L21.5662 40.1834C21.0819 40.356 20.6326 40.6205 20.2411 40.9632C19.9982 41.2253 19.8625 41.575 19.8625 41.939C19.8625 42.3029 19.9982 42.6526 20.2411 42.9147C20.3673 43.0404 20.5167 43.1382 20.6802 43.2023C20.8437 43.2664 21.018 43.2955 21.1927 43.2879C21.4967 43.281 21.7965 43.2115 22.0744 43.0833C22.3524 42.9553 22.6032 42.7711 22.8122 42.5415" fill="white"/>
<path d="M29.4436 29.8281H27.6123V44.4476H29.4436V29.8281Z" fill="white"/>
<path d="M43.5335 29.8281H45.4151V44.4438H43.3935V33.0706L39.0664 38.7199H38.693L34.3192 33.0706V44.4438H32.3047V29.8281H34.2115L38.8868 35.8318L43.5335 29.8281Z" fill="white"/>
<path d="M54.0175 38.658V42.7624C54.0175 43.0908 54.1252 43.255 54.3406 43.255C54.7242 43.1814 55.0823 43.0038 55.3784 42.74V43.9043C55.0621 44.1252 54.7267 44.3151 54.3766 44.4714C54.1246 44.5727 53.8568 44.6246 53.5865 44.6244C52.8013 44.6244 52.3381 44.3035 52.1968 43.6617C51.4942 44.2598 50.6166 44.5915 49.7083 44.602C49.4103 44.6108 49.1137 44.5564 48.8364 44.4421C48.5593 44.328 48.3073 44.1564 48.096 43.9379C47.8838 43.721 47.7171 43.4609 47.6066 43.1739C47.4959 42.8867 47.4437 42.579 47.4533 42.2699C47.4522 41.6635 47.6775 41.0804 48.0817 40.643C48.5815 40.121 49.1985 39.7363 49.8772 39.5237L52.222 38.6841V38.1729C52.222 37.0162 51.6654 36.4341 50.5522 36.4341C49.5515 36.4341 48.5784 36.9714 47.6328 38.0461V35.9379C48.351 35.0696 49.3743 34.6344 50.7031 34.6319C51.5738 34.5876 52.43 34.8771 53.109 35.4453C53.5501 35.8568 53.8491 36.4073 53.96 37.0124C54.0151 37.559 54.0367 38.1086 54.0246 38.658H54.0175ZM52.2292 42.5423V39.6841L51.0011 40.1767C50.5168 40.3493 50.0676 40.6137 49.6761 40.9565C49.4307 41.2162 49.2918 41.5646 49.2884 41.9284C49.2851 42.2924 49.4176 42.6435 49.6581 42.908C49.7843 43.0337 49.9336 43.1315 50.0972 43.1956C50.2607 43.2597 50.435 43.2888 50.6097 43.2811C50.9137 43.2743 51.2134 43.2048 51.4914 43.0766C51.7694 42.9486 52.0201 42.7644 52.2292 42.5348" fill="white"/>
<path d="M58.9606 34.8184V37.0273L59.0612 36.8594C59.9469 35.3669 60.8338 34.6206 61.7221 34.6206C62.4115 34.6206 63.1297 34.9826 63.8766 35.7065L62.9106 37.3818C62.275 36.7549 61.6825 36.4415 61.1403 36.4415C60.8352 36.4487 60.5362 36.532 60.2687 36.6847C60.0011 36.8373 59.7729 37.0547 59.6034 37.3184C59.1658 37.9157 58.9366 38.65 58.9534 39.4005V44.4452H57.1113V34.8184H58.9606Z" fill="white"/>
<path d="M66.1105 30.7685C66.2541 30.7661 66.3966 30.7936 66.5299 30.8493C66.663 30.9051 66.7842 30.9879 66.8861 31.0931C66.9904 31.1947 67.073 31.318 67.1288 31.4548C67.1844 31.5917 67.2118 31.7392 67.2092 31.8878C67.2105 32.0362 67.1825 32.1833 67.1269 32.32C67.0713 32.4567 66.9893 32.5801 66.8861 32.6826C66.785 32.7897 66.6644 32.8746 66.5311 32.9323C66.3978 32.9901 66.2548 33.0192 66.1105 33.0184C65.9707 33.0182 65.8325 32.9879 65.7046 32.9295C65.5766 32.871 65.4618 32.7857 65.3671 32.6788C65.2648 32.5764 65.1835 32.4535 65.1279 32.3176C65.0723 32.1816 65.0439 32.0355 65.0439 31.8878C65.0446 31.742 65.0736 31.5977 65.1292 31.4638C65.1847 31.3298 65.2656 31.2087 65.3671 31.1079C65.4618 31.0011 65.5766 30.9158 65.7046 30.8574C65.8325 30.799 65.9707 30.7686 66.1105 30.7685ZM65.2055 34.8169H67.0477V44.4438H65.2163L65.2055 34.8169Z" fill="white"/>
</svg>
